<?xml version="1.0" encoding="UTF-8"?>
<svg id="Layer_1" data-name="Layer 1" xmlns="http://www.w3.org/2000/svg" viewBox="0 0 1030.03 1159.48">
  <defs>
    <style>
      .cls-1 {
        fill: #fff;
      }

      .cls-2 {
        stroke-width: 10px;
      }

      .cls-2, .cls-3 {
        fill: none;
        stroke: #000;
        stroke-miterlimit: 10;
      }

      .cls-3 {
        stroke-width: 10.15px;
      }

      .cls-4 {
        fill: #6bbe64;
      }
    </style>
  </defs>
  <g>
    <path class="cls-1" d="M750.65,62.22c37.33,37.52,64.01,87.91,55.38,151-.4,2.95-.88,5.93-1.44,8.93-2.24,12.05-6.39,23.25-12.02,33.59-19.64,36.14-57.29,61.63-94.34,75.3-47.67,17.58-99.26,16.89-149.31,11.7-9.68-1-19.39-2.19-29.07-3.69l-83.38,52.08,11.13-72.28c-6.29-2.85-12.47-6.04-18.49-9.61-36.52-21.68-67.09-59.75-72.55-105.01-4-33.18,5.83-67.22,22.95-94.89,17.11-27.67,33.36-45.44,68.89-66.01,89.6-51.86,227.5-56.24,302.25,18.89ZM698.27,208.35c45.22,6.75,46.15-65.71-3.01-56.2-28.29,5.46-25.5,51.94,3.01,56.2ZM585.6,208.35c45.23,6.75,46.16-65.71-3-56.2-28.29,5.46-25.5,51.94,3,56.2ZM472.94,208.35c45.22,6.75,46.16-65.71-3-56.2-28.29,5.46-25.5,51.94,3,56.2Z"/>
    <path class="cls-4" d="M1024.96,636.28c0,286.15-231.97,518.12-518.12,518.12-125.19,0-240.01-44.4-329.58-118.31-28.55-23.57-54.54-50.13-77.48-79.22-59.96-82.42-70.68-179.07-70.68-179.07-1.79-14.76,5.61-32.29,2.8-42.68-5.3-19.57-30.92-22.73-26.26-50.35,3.08-18.27,35.95-32.17,38.76-50.86,2.47-16.42-22.94-29.7-5.33-58.82,12.48-20.66,43.28-19.2,60.57-36.51,21.14-21.18,15.14-60.77,46.31-77.93,27.9-15.37,56.95,3.84,74.79-3.39,6.79-2.75,9.22-11.03,14.43-16.01,28.43-27.16,82.19-19.03,101.11,15.71,4.13,7.59,4.77,14.41,10.14,22.16,10.91,15.74,27.83,19.2,45.81,23.41,2.86-.02,5.7-.11,8.52-.24,53.52-2.44,108.48-19.92,161.59-27.88,9.59-11.16,9.91-24.09,22.98-34.7,41.36-33.57,99.87-4.58,114.97,41.88,7.77,23.88,13.51,39.16-26.99,45.69-2.64,28.29-9.24,38.99-21.51,60.37l-21.45-50.32c-18.61,2.57-37.23,4.33-56.1,7.18-9.87,1.48-25.76,6.9-25.76,6.9-1.57,16.98-3.98,34.45-15.56,47.9l-32.37-41.13c-4.4-.27-8.79-.38-12.98.14-29.14,3.61-53.16,15-76.33,27.93-2.16,1.21-13.07,8.97-13.07,8.97-4.74,7.39-7.46,7.07-13.09,22.38-.9,2.46-7.46,17.85-9.82,16.75l-25.2-30.2c-34.23,9.47-70.09,15.54-113.7,2.06-16.49-5.1-29.22-19.1-36.98,6.93,14.41,8.36,30.28,18.3,46.6,27.21s33.08,16.79,49.29,21.03c15.74,3.44,32.09,5.14,48.86,5.27l10.05,36.39c1.66,2.01,14.2-9.06,16.08-10.89,18.96-18.53,12.91-30.73,45.12-28.1,29.83,2.43,57.26,12.64,82.51,28.55l13.68,46.68c16.24-7.16,25.94-21.89,34.66-36.53,35.25,20.82,76.88,26.63,115.42,39.16-24.7,37.92-66.83,41.75-108.35,39.89-78.91-3.54-167.76-33.07-238.06,17.95,0,0-68.05,151.27,163.22,166.61l.03-.2c15.98,1.91,32.25,2.89,48.75,2.89,224.23,0,406-181.77,406-406,0-122.79-54.52-232.86-140.66-307.31h-.01c5.63-10.34,9.78-21.54,12.02-33.59.56-3,1.04-5.98,1.44-8.93,132.47,93.86,218.93,248.36,218.93,423.06ZM274.87,513.02c45.23,6.75,46.16-65.71-3-56.2-28.29,5.46-25.5,51.94,3,56.2Z"/>
    <path d="M695.26,152.15c49.16-9.51,48.23,62.95,3.01,56.2-28.51-4.26-31.3-50.74-3.01-56.2Z"/>
    <path d="M582.6,152.15c49.16-9.51,48.23,62.95,3,56.2-28.5-4.26-31.29-50.74-3-56.2Z"/>
    <path d="M469.94,152.15c49.16-9.51,48.22,62.95,3,56.2-28.5-4.26-31.29-50.74-3-56.2Z"/>
    <path d="M271.87,456.82c49.16-9.51,48.23,62.95,3,56.2-28.5-4.26-31.29-50.74-3-56.2Z"/>
  </g>
  <g>
    <path class="cls-2" d="M806.03,213.22c-.4,2.95-.88,5.93-1.44,8.93-2.24,12.05-6.39,23.25-12.02,33.59-19.64,36.14-57.29,61.63-94.34,75.3-47.67,17.58-99.26,16.89-149.31,11.7-9.68-1-19.39-2.19-29.07-3.69l-83.38,52.08,11.13-72.28c-6.29-2.85-12.47-6.04-18.49-9.61-36.52-21.68-67.09-59.75-72.55-105.01-4-33.18,5.83-67.22,22.95-94.89,17.11-27.67,33.36-45.44,68.89-66.01,89.6-51.86,227.5-56.24,302.25,18.89,37.33,37.52,64.01,87.91,55.38,151Z"/>
    <path class="cls-3" d="M792.58,255.74c86.14,74.45,140.66,184.52,140.66,307.31,0,224.23-181.77,406-406,406-16.5,0-32.77-.98-48.75-2.89l-.03.2c-231.27-15.34-163.22-166.61-163.22-166.61,70.3-51.02,159.15-21.49,238.06-17.95,41.52,1.86,83.65-1.97,108.35-39.89-38.54-12.53-80.17-18.34-115.42-39.16-8.72,14.64-18.42,29.37-34.66,36.53l-13.68-46.68c-25.25-15.91-52.68-26.12-82.51-28.55-32.21-2.63-26.16,9.57-45.12,28.1-1.88,1.83-14.42,12.9-16.08,10.89l-10.05-36.39c-16.77-.13-33.12-1.83-48.86-5.27-16.21-4.24-32.97-12.12-49.29-21.03s-32.19-18.85-46.6-27.21c7.76-26.03,20.49-12.03,36.98-6.93,43.61,13.48,79.47,7.41,113.7-2.06l25.2,30.2c2.36,1.1,8.92-14.29,9.82-16.75,5.63-15.31,8.35-14.99,13.09-22.38,0,0,10.91-7.76,13.07-8.97,23.17-12.93,47.19-24.32,76.33-27.93,4.19-.52,8.58-.41,12.98-.14l32.37,41.13c11.58-13.45,13.99-30.92,15.56-47.9,0,0,15.89-5.42,25.76-6.9,18.87-2.85,37.49-4.61,56.1-7.18l21.45,50.32c12.27-21.38,18.87-32.08,21.51-60.37,40.5-6.53,34.76-21.81,26.99-45.69-15.1-46.46-73.61-75.45-114.97-41.88-13.07,10.61-13.39,23.54-22.98,34.7-53.11,7.96-108.07,25.44-161.59,27.88-2.82.13-5.66.22-8.52.24-17.98-4.21-34.9-7.67-45.81-23.41-5.37-7.75-6.01-14.57-10.14-22.16-18.92-34.74-72.68-42.87-101.11-15.71-5.21,4.98-7.64,13.26-14.43,16.01-17.84,7.23-46.89-11.98-74.79,3.39-31.17,17.16-25.17,56.75-46.31,77.93-17.29,17.31-48.09,15.85-60.57,36.51-17.61,29.12,7.8,42.4,5.33,58.82-2.81,18.69-35.68,32.59-38.76,50.86-4.66,27.62,20.96,30.78,26.26,50.35,2.81,10.39-4.59,27.92-2.8,42.68,0,0,10.72,96.65,70.68,179.07,22.94,29.09,48.93,55.65,77.48,79.22,89.57,73.91,204.39,118.31,329.58,118.31,286.15,0,518.12-231.97,518.12-518.12,0-174.7-86.46-329.2-218.93-423.06"/>
  </g>
</svg>